<?xml version="1.0" encoding="UTF-8" standalone="no"?>
<svg width="512" height="512" viewBox="0 0 512 512" fill="none" xmlns="http://www.w3.org/2000/svg">
  <!-- Background -->
  <rect width="512" height="512" rx="100" fill="#4A6FA5"/>
  
  <!-- Browser window frame -->
  <rect x="80" y="100" width="352" height="312" rx="20" fill="white"/>
  
  <!-- Tab strip -->
  <rect x="80" y="100" width="352" height="50" rx="12" fill="#E0E6EF"/>
  
  <!-- Active tab -->
  <path d="M120 100H270C276.627 100 282 105.373 282 112V150H108C108 143.373 113.373 138 120 138V100Z" fill="white"/>
  
  <!-- Cat silhouette -->
  <path d="M356 312C356 363.856 314.856 405 263 405C211.144 405 170 363.856 170 312C170 260.144 211.144 219 263 219C314.856 219 356 260.144 356 312Z" fill="#F9A825"/>
  
  <!-- Cat ears -->
  <path d="M230 230L210 180C210 180 190 210 220 240L230 230Z" fill="#F9A825"/>
  <path d="M296 230L316 180C316 180 336 210 306 240L296 230Z" fill="#F9A825"/>
  
  <!-- Cat eyes -->
  <ellipse cx="233" cy="290" rx="15" ry="25" fill="#47B8E0"/>
  <ellipse cx="293" cy="290" rx="15" ry="25" fill="#47B8E0"/>
  
  <!-- Cat pupils -->
  <ellipse cx="233" cy="290" rx="8" ry="15" fill="black"/>
  <ellipse cx="293" cy="290" rx="8" ry="15" fill="black"/>
  
  <!-- Cat nose -->
  <path d="M263 330L253 310H273L263 330Z" fill="#333333"/>
  
  <!-- Cat whiskers -->
  <line x1="210" y1="330" x2="250" y2="320" stroke="#333333" stroke-width="2"/>
  <line x1="210" y1="340" x2="250" y2="330" stroke="#333333" stroke-width="2"/>
  <line x1="210" y1="350" x2="250" y2="340" stroke="#333333" stroke-width="2"/>
  
  <line x1="316" y1="330" x2="276" y2="320" stroke="#333333" stroke-width="2"/>
  <line x1="316" y1="340" x2="276" y2="330" stroke="#333333" stroke-width="2"/>
  <line x1="316" y1="350" x2="276" y2="340" stroke="#333333" stroke-width="2"/>
  
  <!-- Stripes -->
  <path d="M240 260C240 260 258 270 286 260" stroke="#E67E22" stroke-width="10" stroke-linecap="round"/>
  <path d="M230 320C230 320 263 340 296 320" stroke="#E67E22" stroke-width="10" stroke-linecap="round"/>
  <path d="M240 350C240 350 263 370 286 350" stroke="#E67E22" stroke-width="10" stroke-linecap="round"/>
</svg>